<?xml version="1.0" encoding="UTF-8"?>
<svg id="Layer_2" data-name="Layer 2" xmlns="http://www.w3.org/2000/svg" xmlns:xlink="http://www.w3.org/1999/xlink" viewBox="0 0 343.3448 391.7175">
  <defs>
    <style>
      .cls-1 {
        fill: #0d3b6c;
      }

      .cls-2 {
        letter-spacing: 0em;
      }

      .cls-3, .cls-4, .cls-5 {
        fill: #ffe5ca;
      }

      .cls-6 {
        fill: #faae4c;
      }

      .cls-7 {
        letter-spacing: -.015em;
      }

      .cls-8 {
        fill: #098dce;
      }

      .cls-9 {
        letter-spacing: -.01em;
      }

      .cls-10 {
        letter-spacing: -.038em;
      }

      .cls-4 {
        font-family: Montserrat-Bold, Montserrat;
        font-size: 44.0558px;
        font-weight: 700;
      }

      .cls-11 {
        clip-path: url(#clippath);
      }

      .cls-12 {
        fill: #0079c0;
      }

      .cls-13 {
        fill: #0a3454;
      }

      .cls-5 {
        font-family: Montserrat-Black, Montserrat;
        font-size: 20.0239px;
        font-weight: 800;
      }
    </style>
    <clipPath id="clippath">
      <path class="cls-12" d="M22.708,264.6765c17.9406,67.6947,79.6163,117.5915,152.9545,117.5915,87.3895,0,158.2328-70.8432,158.2328-158.2328,0-1.2015-.0188-2.3986-.0455-3.5937-22.8487-2.1488-46.8049-3.2925-71.4938-3.2925-100.4518,0-188.7732,18.9247-239.648,47.5275Z"/>
    </clipPath>
  </defs>
  <g id="OBJECTS">
    <g>
      <g>
        <path class="cls-3" d="M295.2477,106.497c-26.3266-26.7785-60.1586-43.6515-96.8181-48.6065,.9603-1.3303,1.9026-2.7006,2.8222-4.1047,1.5661-2.391,1.9659-5.3625,1.0872-8.0824-.8786-2.7199-2.9412-4.896-5.6102-5.9189-.481-.1844-3.0893-1.1453-7.2113-1.9604-.6093-.1205-1.2197-.1794-1.8237-.1802-.5703-.1946-1.1669-.337-1.7839-.4211-2.4984-.3401-5.0386-.5284-7.55-.5597-.0394-.0005-.0793-.0007-.1187-.0007-.6006-.0001-1.192,.0569-1.7675,.1664-.4629-.0701-.9343-.106-1.4111-.106-.1595,0-.319,.004-.4794,.0121-1.8609,.094-3.7231,.2769-5.5346,.5437-.7269,.1069-1.4291,.2965-2.0957,.5599-.0221-.0002-.0445-.0003-.0666-.0003-.6945,0-1.3952,.0768-2.0904,.2344-1.5203,.3448-3.0202,.7525-4.4969,1.2219,.0108-.3123,.0062-.6261-.0143-.9408-.3404-5.2366-1.3641-10.6637-3.0427-16.1303-.3178-1.0349-.8063-1.9937-1.4345-2.8434-.0359-1.0468-.2462-2.0944-.6367-3.0988-1.4446-3.7156-3.203-7.5151-5.2265-11.2931-1.3495-2.5196-3.7668-4.293-6.5753-4.8237-.5834-.1102-1.171-.1644-1.7548-.1644-2.2268,0-4.4035,.7876-6.1274,2.256-.4313,.3674-4.333,3.7613-8.4597,9.7171-.4154,.5995-.7579,1.242-1.023,1.9139-.4967,.5168-.9381,1.0937-1.3123,1.7239-1.249,2.1033-2.3758,4.2943-3.349,6.5122-.4109,.9366-.6624,1.922-.7554,2.9174-.5849,.8017-1.0512,1.7079-1.3674,2.6998-.6747,2.1167-1.2221,4.2725-1.6362,6.4401-1.2146-.5872-2.4548-1.1037-3.7104-1.5449-.5698-.2002-1.1492-.3429-1.7303-.4303-.5236-.2377-1.0748-.4301-1.6492-.5717-2.3205-.5718-4.7231-.9298-7.1408-1.0639-.1755-.0097-.3507-.0145-.5251-.0145-.4658,0-.9268,.0343-1.3804,.1014-.5185-.0879-1.0463-.1328-1.5784-.1328-.1064,0-.2127,.0018-.3195,.0054-1.4783,.0499-3.0335,.1829-4.6225,.3951-.3828,.0511-.759,.1251-1.1273,.2208-.3865,.0211-.7746,.0662-1.1629,.1361-2.9586,.5328-6.0058,1.3428-9.0571,2.4075-.4733,.1651-.9275,.3656-1.3594,.5974-.4705,.1068-.9367,.2506-1.3949,.4324-.7216,.2863-1.3797,.5578-2.0121,.8301-.2802,.1207-.552,.2536-.8145,.3976-.2778,.0969-.5531,.2076-.8246,.3319-1.0782,.4937-2.1858,1.0312-3.2921,1.5977-.3225,.1652-.6317,.3465-.9274,.5429-.3367,.1352-.6677,.2907-.9915,.4666-8.0564,4.3771-13.558,8.974-13.7882,9.1676-3.3498,2.8158-4.328,7.5632-2.3643,11.4739,1.6297,3.2455,4.9319,5.2101,8.4424,5.2101,.7196,0,1.4478-.0826,2.1723-.2535,1.5489-.3654,3.0969-.676,4.6405-.9313-2.6179,2.0199-5.154,4.3117-7.5774,6.8495-.6774,.7093-1.2335,1.5124-1.6559,2.3771-.7949,.5149-1.5175,1.1528-2.138,1.902-2.8907,3.4896-5.6829,7.4339-8.3533,11.7959-1.6296-1.1924-3.5874-1.8232-5.5799-1.8233-.6707,0-1.3449,.0714-2.0124,.2169-2.7927,.6087-5.1598,2.4489-6.4386,5.0051-.3111,.6219-1.9164,3.9823-2.9741,9.0815-.1077,.5192-.171,1.0442-.1905,1.5697-.1552,.4989-.27,1.0138-.3413,1.5409-.2398,1.7726-.3723,3.5704-.3937,5.3432-.0089,.7431,.0697,1.4769,.2298,2.1881-.1028,.7203-.1233,1.4625-.0531,2.2155,.0394,.4231,.0854,.8457,.138,1.2672-.2471,.032-.4913,.0737-.7325,.1244-.4378,.0087-.8793,.0479-1.3216,.1192-1.792,.2887-3.5765,.7509-5.3039,1.3737-.4545,.1639-.8911,.3604-1.3078,.5868-.4545,.1327-.901,.3001-1.3358,.5023-1.005,.4672-2.0342,1.0114-3.0587,1.6177-.2442,.1445-.4803,.2989-.708,.4628-.2543,.135-.504,.2824-.7484,.4424-1.8453,1.2079-3.6668,2.6245-5.4138,4.2105-.2686,.2438-.5205,.5004-.7556,.7686-.2732,.2154-.5364,.4476-.7881,.6961-.3755,.3706-.7442,.7438-1.1033,1.1195-.1515,.1586-.2964,.321-.4348,.4873-.1528,.1463-.3013,.2983-.4455,.4561-.574,.6286-1.1549,1.2943-1.7266,1.9784-.1648,.1973-.3202,.3994-.4665,.6061-.1785,.1897-.3502,.3881-.5142,.5944-4.0059,5.0383-6.2871,9.4432-6.534,9.929-1.9832,3.9008-1.0287,8.6529,2.307,11.4854,1.7579,1.4929,3.935,2.2466,6.1175,2.2466,.1521,0,.3041-.0036,.4562-.0109-.1089,.3937-.1916,.7922-.2484,1.1935-.3279,.5905-.5948,1.2205-.7924,1.8818-1.7704,5.9241-2.8352,12.7719-3.1646,20.3531-.1869,4.2989,2.553,8.1724,6.6491,9.4382-2.9069,12.4383-4.3709,25.2326-4.3709,38.2909,0,22.6328,4.4348,44.5936,13.1812,65.2724,8.446,19.9687,20.5352,37.9003,35.9319,53.2969,15.3965,15.3965,33.3282,27.4858,53.2968,35.9319,20.6788,8.7463,42.6396,13.1811,65.2724,13.1811s44.5937-4.4348,65.2725-13.1811c19.9686-8.4461,37.9002-20.5354,53.2969-35.9319,15.3965-15.3966,27.4857-33.3282,35.9318-53.2969,8.7463-20.6788,13.1812-42.6396,13.1812-65.2724,0-44.2473-17.0812-85.9899-48.0971-117.5382Z"/>
        <path class="cls-12" d="M333.7719,218.0653c.0274,.7375,.0586,1.474,.0758,2.214-22.4002-2.0423-47.4423-3.1303-71.4917-3.1303-15.9368,0-31.5667,.4779-46.7917,1.3937,2.2893-2.2515,2.5681-5.1603-1.1887-9.1529-2.1769-2.3135-5.2639-3.5379-8.3275-4.3779-11.2302-3.0791-24.1759-2.236-33.1845-9.6145-1.2505-1.0242-2.4884-2.5174-2.0789-4.081,.4689-1.7901,2.6865-2.358,4.523-2.5863,13.0762-1.6253,26.2785-2.2353,39.4489-1.8226,1.6572-7.5186-9.4856-11.4076-12.06-18.6635-2.8348-7.9898,5.749-16.4067,3.7647-24.6491-.4341-1.8028-1.3718-3.6305-.8721-5.4163,.9132-3.2634,5.3538-3.478,8.7423-3.4378,10.1082,.1196,20.2104-3.7442,27.6588-10.5787-1.2646-4.2824-7.1096-4.4899-11.5746-4.4476-4.465,.0422-10.4297-2.5567-9.2138-6.8531,1.0459-3.696,6.6677-4.2329,8.1433-7.7792,1.8741-4.5039-4.2299-8.0435-9.0396-8.8587-7.8684-1.3336-15.898-1.7132-23.8571-1.1277-2.1959-1.9434-.2664-5.857,2.4894-6.859s5.8069-.3137,8.7336-.4953c2.9267-.1815,6.2904-1.9317,6.3315-4.8638,.0564-4.0292-5.6797-5.3789-7.5605-8.9426-.6047-1.1455-.1792-3.3069,.3614-5.0613,.9582,.1913-19.4666-3.0714-31.1415-3.0714-18.3826,0-36.028,3.1454-52.4409,8.9094,.897-.315,1.7968-.6242,2.7012-.9235,4.9062,.0223,9.8125,.0446,14.7187,.0669,6.1275,.0278,14.3008,1.9381,14.3778,8.0651-16.1929,3.2079-32.1052,7.8311-47.4961,13.7996,1.7021,3.8557,6.9555,4.1848,11.1618,3.9189,10.2986-.6509,20.5972-1.3019,30.8959-1.9528,1.6847-.1065,3.4597-.196,4.9718,.5546,4.412,2.19,2.9284,9.1216-.5455,12.6136-8.3687,8.4123-21.8201,7.9249-33.2396,11.1497-1.6435,.4641-3.3683,1.0885-4.3822,2.4628-1.6861,2.2855-.749,5.664-2.0919,8.1666-2.8589,5.3275-13.9738,4.0291-13.7776,10.072,.0575,1.7712,1.3212,3.3206,1.4429,5.0886,.268,3.8928-4.6395,5.9503-6.3593,9.4529-2.69,5.4788,3.729,11.5121,9.8082,12.0567s12.1104-1.8996,18.2014-1.5076c1.3365,1.9734,.3511,4.8304-1.4994,6.3325-1.8506,1.5021-4.2982,1.993-6.64,2.4364-7.4099,1.4029-14.8199,2.8057-22.2298,4.2086-3.0551,.5784-6.2483,1.2188-8.6622,3.1788-2.414,1.9599-3.6986,5.6878-1.9538,8.2616,6.9777,.9925,14.0978-.361,21.1175,.2696,7.0197,.6307,14.63,4.094,16.7189,10.8253,.7885,2.5406,.6776,5.2123,.0361,7.8082,1.3189,6.0236,.4049,13.728,1.3484,19.5021-40.0819,8.2838-74.1301,19.9994-99.1315,34.0546,.0443,.1671,.0905,.3334,.1353,.5003,.3881,1.4446,.79,2.8837,1.2181,4.3115,19.5309,65.235,80.0058,112.7826,151.5958,112.7826,87.3896,0,158.2328-70.8432,158.2328-158.2328,0-2-.0497-3.9879-.1233-5.9699Z"/>
      </g>
      <g>
        <path class="cls-3" d="M25.5884,274.3072c.0027,.0009,.0054,.0017,.0082,.0025-.5272-1.5742-1.0303-3.1594-1.5094-4.7551,.478,1.5941,.9746,3.1801,1.5012,4.7526Z"/>
        <g>
          <polygon class="cls-3" points="332.2878 246.5903 332.2879 246.5903 332.2881 246.5883 332.2878 246.5903"/>
          <path class="cls-3" d="M333.4785,235.5056c.0076-.1061,.0127-.213,.0201-.3191-.0073,.1061-.0125,.213-.0201,.3191Z"/>
          <path class="cls-3" d="M333.7563,230.4152c.016-.3968,.0322-.7933,.0453-1.1909-.0129,.3976-.0296,.7941-.0453,1.1909Z"/>
        </g>
      </g>
      <g>
        <circle class="cls-6" cx="178.5954" cy="195.6981" r="67.505"/>
        <g>
          <path class="cls-12" d="M22.708,264.6765c17.9406,67.6947,79.6163,117.5915,152.9545,117.5915,87.3895,0,158.2328-70.8432,158.2328-158.2328,0-1.2015-.0188-2.3986-.0455-3.5937-22.8487-2.1488-46.8049-3.2925-71.4938-3.2925-100.4518,0-188.7732,18.9247-239.648,47.5275Z"/>
          <g class="cls-11">
            <path class="cls-8" d="M221.6169,210.4078c-18.1399,9.5707-1.6162,10.9068,12.2223,13.0656,12.9978,2.0278,30.016,6.9418,.1919,13.4932-15.4247,3.3884,15.608,13.5864,35.3241,15.9412,13.3856,1.5987,25.5,7,11,14.5-15.9679,8.2593-5.5,14.5539,22.5,14.5539,18.4596,0-11.3746,34.0775-26.895,38.8042-31.9322,9.7249-70.4861,12.7922-103.6986,11.7533-30.8328-.9644-65.8768-7.0728-90.8132-26.6078-25.2145-19.753-30.5586-52.461-5.5979-74.5611,22.5466-19.9626,54.834-31.4141,84.2083-35.7685,15.3957-2.2823,28.6992-3.8439,42.0982,3.618,4.4881,2.4994,31.2718,4.976,19.4599,11.208Z"/>
          </g>
        </g>
        <path class="cls-13" d="M333.8498,220.4415c-.9118-40.8984-17.336-77.9697-43.6277-105.5562-23.6808,8.6231-39.9441,35.1648-55.9078,38.0165-19.4917,3.4818-25.6332,17.0783-30.0354,27.6506-4.4023,10.5723-15.1159,13.8253-32.7973,20.3314-13.1275,4.8304-17.7364,15.9342-20.1234,24.4308,34.12-5.2575,71.6265-8.1656,110.9978-8.1656,24.6889,0,48.6452,1.1437,71.4938,3.2925Z"/>
        <g>
          <path class="cls-1" d="M314.2757,300.3916c-11.1839-.5702-25.1196,1.974-37.2811,3.7757-21.9579,3.2531-41.7005,.0242-42.6803-4.9858-.9797-5.0099,12.4312-3.0491,26.5409-8.3206,8.4046-3.1399-.1257-15.1575-.1257-15.1575-14.6387-21.1447-69.4474-28.4483-89.2479-46.3556-19.8005-17.9073-54.316-17.9049-65.2707-27.6507-10.9547-9.7458-30.0905-18.7049-46.3556-23.5844-9.419-2.8257-19.3854-9.739-30.2112-15.1297-7.8645,18.7872-12.2144,39.4109-12.2144,61.0522,0,87.3896,70.8432,158.2328,158.2328,158.2328,59.6985,0,111.6675-33.0653,138.6132-81.8764Z"/>
          <g>
            <path class="cls-13" d="M320.7764,287.1904c-22.1735-.9975-50.1816,10.8237-61.2881,12.5181-15.0018,2.2886-42.6975,.5962-65.2209-15.6346-22.5235-16.2308-78.8538-32.813-94.3525-37.9645-15.4986-5.1515-36.8409-24.4205-44.3727-34.3884-6.2561-8.2795-21.353-10.5637-36.2092-12.2671-1.2496,8.0111-1.9033,16.2196-1.9033,24.5813,0,87.3896,70.8432,158.2328,158.2328,158.2328,64.9367,0,120.727-39.1221,145.1139-95.0776Z"/>
            <path class="cls-13" d="M183.6741,113.2308l7.3051-1.0908c-.8876-4.7118-2.1987-8.8256-3.8252-12.4337h-3.4799l2.916-1.215c-.6776-1.393-1.4064-2.7016-2.1771-3.9372h-4.6031l1.9088-3.8175c-3.9041-4.8746-8.567-8.2767-13.4283-10.6237l-3.873-1.6403c-1.972-.7293-3.9505-1.3043-5.9013-1.7592,.2043-.0531,.4062-.1009,.6119-.1576l.6862-2.4194,2.4766,1.4201c2.0291-.7262,4.1123-1.6358,6.2327-2.7632l3.3324-1.9412c3.6154-2.2875,7.3085-5.2341,10.9977-9.011l-.6668-4.7755,4.4294,.622c2.2624-2.6817,4.5125-5.6928,6.7308-9.0794,0,0-2.1252-.8146-5.6626-1.5141l-3.0997,5.8702,.0505-6.3782c-1.9035-.2592-4.0561-.4451-6.3931-.4742l-3.1822,.0604c-1.4936,.0756-3.0428,.2205-4.6349,.455l-1.3035,3.4981-2.2356-2.8373c-4.8839,1.1076-10.0496,3.115-15.1318,6.4995l-.6249,3.6967-2.425-.9037c.3923-1.1858,.7603-2.4076,1.0653-3.7088l.6368-3.2552c.3339-2.1291,.5325-4.3935,.5578-6.7949l-3.6124-3.8681,3.5035,.0131c-.2776-4.2693-1.0966-8.9223-2.6464-13.9694l-4.5119-1.7008,2.6666-3.5911c-1.2714-3.2701-2.8379-6.6871-4.7492-10.2559,0,0-3.2759,2.7904-6.8199,7.9054l-.2265,5.4915-1.7513-2.4105c-.9846,1.6579-1.9454,3.4894-2.8207,5.4842l-1.7727,4.69c-.7837,2.4588-1.4045,5.1055-1.7742,7.9303l2.0964,4.1291-2.4316-.2959c-.0371,.8341-.0484,1.6832-.0384,2.5438l.2038,3.8164c.2505,2.6445,.7439,5.4009,1.5157,8.2574-1.3557-2.3832-2.7969-4.472-4.3085-6.2891l-1.8989,2.7127,.7464-4.0306c-.9547-1.0397-1.9331-1.9843-2.9341-2.8304l-3.628-2.6145c-1.6417-.9964-3.3227-1.7884-5.0309-2.3885l-2.5081,3.4635v-4.2057c-1.7874-.4405-3.5933-.7035-5.4031-.8039l-2.9609-.0314c-1.2352,.0417-2.4667,.1537-3.6907,.3172l-.9014,2.1493-.9649-1.8587c-2.6078,.4696-5.1654,1.1735-7.6187,2.0296l-2.3829,.8914c-.5936,.2354-1.1811,.4765-1.7589,.7253l-1.4427,.6422c-1.0042,.4598-1.9773,.9347-2.9193,1.4171l.9648,2.8201-2.6796-1.9184c-7.3104,3.9718-12.219,8.0979-12.219,8.0979,29.3355-6.9218,50.8442,5.0669,62.1641,14.126-4.2795-2.4887-9.5632-4.9108-15.481-6.246l-1.4113,4.4363-2.73-5.1709c-5.3553-.6803-11.1189-.3678-17.0484,1.5928l-.4791,4.2412-3.86-2.5078c-1.3195,.6163-2.6435,1.3166-3.9707,2.1155l-1.1347,.7117c-3.3297,2.1395-6.6703,4.8749-9.9817,8.3425l5.5316,4.8945-8.8825-1.1134c-4.5968,5.5493-9.1068,12.5936-13.4215,21.4089l-2.7968,.1145,.7164-2.9618c-1.6678-1.7123-3.5596-3.4382-5.7082-5.1674,0,0-1.3116,2.6218-2.1726,6.7729l1.3197,3.504-1.7399-1.0455c-.1761,1.3018-.2911,2.7061-.3091,4.1901l.1367,3.413c.163,1.7505,.4783,3.5756,.9983,5.4455l2.4137,2.0314-1.6036,.4616c.1988,.533,.4177,1.0685,.653,1.6055l1.1437,2.339c.861,1.5918,1.9042,3.1891,3.1485,4.775-1.4845-1.1337-2.9443-2.06-4.376-2.7972l-.4687,2.2066-.6048-2.7263c-.8755-.398-1.7405-.7299-2.5934-.994l-2.9711-.6739c-1.2948-.1879-2.5598-.237-3.7908-.1587l-.6509,2.8396-1.1194-2.6375c-1.2383,.1996-2.4407,.5153-3.6024,.9341l-.5234,3.9297-1.3418-3.1612c-.7635,.3549-1.5059,.7529-2.23,1.1813l-1.0931,.679c-1.5103,.9887-2.9269,2.1109-4.2375,3.3008l.9319,2.1956-2.189-1.0024c-.3096,.3057-.6138,.6133-.9099,.9231l-.7339,.7867c-.5073,.5556-.9911,1.1125-1.4535,1.6657l1.3558,1.5118-2.1911-.4898c-3.5273,4.4366-5.5071,8.3307-5.5071,8.3307,16.5543-12.1494,33.2339-10.3562,42.7441-7.6882-3.3462-.4217-7.3045-.5342-11.3711,.2037l.2958,3.1578-3.0885-2.5161c-3.5394,.9988-7.0706,2.729-10.2672,5.5368l.8284,2.7873-3.0881-.5453c-.6634,.7378-1.3073,1.5293-1.927,2.3837l-.5222,.7483c-1.5185,2.228-2.8854,4.8326-4.039,7.8886l4.7717,1.597-5.8666,1.6661c-1.4803,4.9534-2.467,10.906-2.7778,18.0577,0,0,2.4492-4.3091,7.2021-10.1754l-.4897-3.652,2.2849,1.4958c2.0505-2.3983,4.4444-4.9801,7.1719-7.5877l1.6353-1.5288c.9394-.8584,1.9152-1.7158,2.9262-2.5672l1.0314-.856c2.5213-2.0624,5.2527-4.0757,8.1918-5.9587l-1.1915-3.1635,3.7994,1.5622c2.8581-1.6825,5.909-3.215,9.1219-4.562-.8097,.8646-1.788,2.0327-2.7735,3.5141l1.2172,2.8676-3.0335,.2811c-.9737,1.9655-1.8347,4.2744-2.393,6.9246l1.2501,1.1715-1.6337,1.0555c-.1946,1.4552-.295,3.0005-.2752,4.6364l2.52,2.5789-2.3864,.0451c.2548,2.9036,.8843,6.0601,2.0177,9.4737l3.0992,1.0888-1.7609,2.487c.9163,2.2077,2.0359,4.5108,3.3926,6.912,0,0,8.6503-7.7112,9.9047-20.2974,3.802,16.05,8.0671,38.3521,10.298,64.4567-1.0601-1.1234-2.0161-2.4003-2.8673-3.6638-2.3924-3.5513-4.8899-7.5526-8.836-8.727,3.4032,7.0714,7.5296,13.7441,12.2749,19.8703,.021,.3085,.0418,.6174,.0622,.9269-3.773-2.9282-7.6544-5.7401-12.0054-7.4949,1.1713,3.0091,2.3426,6.0182,3.5139,9.0272-1.1497-.9062-2.5472-1.449-3.9733-1.5433,1.4725,2.6681,3.1853,5.1848,5.1073,7.504-3.9452-3.1615-8.9702-4.7492-13.8909-4.3893,3.371,3.6411,6.841,7.3578,11.1908,9.5115,5.4309,2.689,11.6486,2.6655,17.6344,2.5918,11.4758-.1414,22.9516-.2829,34.4274-.4243,2.6283-.0324,5.3293-.0798,7.7631-1.1401s4.5728-3.3829,4.7202-6.1858c-3.5727,3.0757-8.2308,4.6766-12.8125,4.4035,1.8022-1.3028,3.6045-2.6055,5.4067-3.9083-2.3784,1.1093-4.9591,1.7214-7.5536,1.7914,5.5913-3.9373,10.8881-8.3512,15.8235-13.1862-5.8712,1.4824-11.5398,3.8767-16.7722,7.0845,1.2604-2.888,2.3227-5.8746,3.1756-8.9279-2.406,.6874-4.812,1.3749-7.2181,2.0624,1.6228-4.5236,2.5409-9.3346,2.705-14.1756-.9829,.5407-1.8945,1.1653-2.7715,1.8299,4.8641-52.5661,17.109-97.02,25.3053-122.2393-.0429,2.555,.1428,5.323,.666,8.2588l2.3455,.907-1.643,2.3348c.5355,2.0875,1.2485,4.2458,2.175,6.4615l1.6248,3.4976c1.9434,3.8115,4.5359,7.7612,7.9554,11.7838l4.8167-.2223-1.0289,4.3529c2.461,2.5007,5.2512,5.0196,8.4181,7.5414,0,0,1.9052-3.8585,3.1373-9.9581l-1.9638-5.1333,2.5619,1.5214c.2486-1.9122,.4067-3.9743,.4217-6.1527l-4.8678-4.016,4.6412-.9927c-.2527-2.5683-.7294-5.2447-1.507-7.9854l-1.2081-3.6533c-.2958-.7807-.6212-1.5651-.9708-2.3515l-1.6965-3.4247c-2.2202-4.054-5.2361-8.1293-9.2543-12.0902l.1703-.1642c.2899,.2428,.5854,.4826,.8718,.7272l3.361,2.9801c3.768,3.4721,7.2024,7.0793,10.3206,10.7039l2.8354-.8041-1.5629,2.3047c1.2442,1.4887,2.4359,2.977,3.5747,4.4576h3.4624l-1.4888,2.6272c3.2772,4.4654,6.0787,8.8083,8.4308,12.7984l3.6844-1.5791-1.6399,5.1539c5.3733,9.6928,7.814,16.5465,7.814,16.5465,1.3759-10.417,1.4686-19.2733,.5929-26.8112l-8.055-3.9055Zm-113.3384,26.8018c.0897,.024,.1782,.0498,.2676,.0741l.0044,.018c-.0911-.0305-.1802-.0621-.272-.0921Zm12.8516,27.9659l2.9614-1.4215,.5135,3.0037c2.209,.9131,4.6292,1.75,7.2865,2.4885,0,0,.1676-2.9269-.6833-7.0799l-2.5979-2.6965,2.0116,.2722c-.3531-1.2653-.8029-2.6006-1.3733-3.9707l-4.1216-1.2228,2.6463-1.8579c-.8421-1.5434-1.8534-3.0949-3.0707-4.6067l-1.73-1.9693c-.3933-.411-.8061-.8162-1.2347-1.2163l-1.9755-1.6961c-2.4693-1.9496-5.4566-3.6931-9.0267-5.1068l.0681-.1601c.2464,.075,.4955,.1468,.7402,.224l2.9011,.9742c3.2871,1.1744,6.4011,2.5223,9.3213,3.9654l1.1975,.6023c1.1764,.6024,2.3199,1.2186,3.4282,1.8439l2.1713-.9216-.2343,2.0438c3.2438,1.928,6.1567,3.9058,8.6937,5.782l1.8902-1.971,.3436,3.6685c.8158,.6375,1.578,1.2535,2.2943,1.8464-5.0654,21.9674-8.8033,42.9566-11.3628,59.2041-.541-1.1894-1.0819-2.3788-1.6228-3.5681-.7152,2.1555-1.4303,4.3111-2.1455,6.4667-.6742-1.6248-1.627-3.1335-2.8044-4.4403-.2583-.2867-.7722-.5446-.9615-.2084,.2092,1.6661,.4183,3.3323,.6275,4.9984-2.6821-17.1667-7.0284-39.6514-13.6346-60.2963l3.0133,.0347-1.6556,1.7193c2.2333,1.8729,4.9105,3.6598,8.1256,5.2722Zm41.4503-87.4046v4.5728l-4.2601-1.36c-2.4427,2.0973-4.9302,4.7233-7.2046,7.9839l1.0172,2.2999-2.8127,.4892c-1.0975,1.8547-2.1195,3.885-3.031,6.1069l-1.3243,3.622c-1.3209,4.0694-2.2807,8.6954-2.7071,13.9578l3.5631,3.2487-3.8055,2.3505c-.028,3.5084,.1637,7.2625,.6199,11.285,0,0,3.397-1.1497,7.9342-3.9698-1.866,6.6647-3.6073,13.3822-5.2258,20.0534-.505-1.0235-1.0192-2.0105-1.5474-2.9393l-6.091-.305,4.2908-2.6285c-1.8108-2.7186-3.728-4.9494-5.7085-6.7792l-.677-.6119c-.7957-.6931-1.6011-1.3198-2.4133-1.8895l-2.8866,1.2252,.1809-2.902c-3.7458-2.0178-7.5756-2.9101-11.2489-3.088l-2.4441,3.1458-.4214-3.1434c-1.4363,.0678-2.8354,.235-4.1847,.4705,.1192-.0917,.2384-.1702,.3575-.2647l1.7174-1.4686c1.0792-.9955,2.1435-2.1203,3.1731-3.3918l-.2919-3.5939,1.865,1.4896c1.6584-2.397,3.19-5.2279,4.4982-8.5783l-1.6892-2.8173,2.9432-.789c.705-2.2839,1.3146-4.7712,1.8042-7.4854,0,0-1.5495,.0548-3.9541,.5577l-.3813,4.5064-1.6661-4.0133c-1.2627,.3441-2.6621,.8005-4.1354,1.4044l-1.9795,.8849c-.9166,.4449-1.8495,.9482-2.7855,1.519l.1137,2.5407-2.1572-1.1843c-2.768,1.9947-5.4731,4.6285-7.7593,8.1038l-1.1692,2.5634c-.0697-.848-.1641-1.7122-.3192-2.6094l-.4671-2.2109c-.3574-1.4241-.8355-2.897-1.4588-4.4097l-3.295-1.4641,2.2005-.9244c-1.2538-2.4908-2.9177-5.0704-5.0864-7.6994,2.2907-1.6116,7.1911-4.8854,14.102-8.5579l1.4327-5.2152,2.2294,3.3314c4.1461-2.0645,8.8615-4.18,14.0423-6.1392l3.0863-1.1278c1.7616-.6211,3.5718-1.2199,5.4261-1.7905l-.0549-2.7841,1.9395,2.219c4.5896-1.3407,9.4347-2.4944,14.486-3.3531l.2044-4.9577,4.2377,4.2898c4.8434-.6365,9.8554-.9784,14.9877-.9531-1.5973,.7045-3.6071,1.728-5.8089,3.178Z"/>
          </g>
        </g>
      </g>
      <g>
        <path class="cls-6" d="M86.823,112.3748l-2.9432,.789,1.0235,1.7069c7.5241-6.2662,15.705-11.7666,24.4205-16.3902,.6466-1.3766,1.3316-2.6808,2.0536-3.9008l2.8127-.4892-.8266-1.8689c-8.9608,4.2521-17.4229,9.3882-25.2703,15.301-.3777,1.7093-.8004,3.3305-1.2702,4.8522Z"/>
        <path class="cls-6" d="M56.8263,139.7232c-.0323,.0135-.0633,.0283-.0956,.0419-.065,.0916-.1273,.1854-.1922,.2771,.0956-.1055,.1962-.2213,.2878-.319Z"/>
        <path class="cls-6" d="M54.1674,143.5074c-.6316,.9498-1.2527,1.907-1.8625,2.8722l2.965-.2747-1.1025-2.5975Z"/>
        <path class="cls-6" d="M175.6623,78.2233c-3.8006,0-7.5675,.1473-11.2958,.4343l-1.0688,3.8899c.2495-.0216,.4981-.0464,.748-.0667l4.2447-2.368c1.2023,.5806,2.3922,1.2267,3.5618,1.9426,1.2662-.0336,2.536-.0522,3.8101-.0522,78.3172,0,142.0323,63.7151,142.0323,142.0318s-63.7151,142.0327-142.0323,142.0327S33.6305,302.3517,33.6305,224.035c0-23.2586,5.6198-45.2291,15.5724-64.6257,.0152-1.3493,.0935-2.6497,.2569-3.8718l1.6337-1.0554-1.2501-1.1715c.523-2.4826,1.3162-4.6534,2.2142-6.5352-14.0615,22.4157-22.2069,48.9023-22.2069,77.2596,0,80.4013,65.4108,145.8126,145.8116,145.8126s145.8121-65.4113,145.8121-145.8126S256.0632,78.2233,175.6623,78.2233Z"/>
      </g>
      <g>
        <g>
          <text class="cls-5" transform="translate(131.2136 287.3824)"><tspan x="0" y="0">TIME </tspan><tspan class="cls-9" x="58.6895" y="0">T</tspan><tspan class="cls-2" x="71.585" y="0">O</tspan></text>
          <text class="cls-4" transform="translate(85.4685 331.1773)"><tspan x="0" y="0">TR</tspan><tspan class="cls-10" x="59.6069" y="0">A</tspan><tspan class="cls-7" x="91.6797" y="0">V</tspan><tspan x="123.8838" y="0">EL</tspan></text>
        </g>
        <rect class="cls-3" x="96.658" y="279.0643" width="29.7816" height="3.1027"/>
        <rect class="cls-3" x="223.9263" y="279.0643" width="29.5323" height="3.1027"/>
      </g>
    </g>
  </g>
</svg>